<svg version="1.1" viewBox="733.088 11.91919191919192 67.456 64.56228956228956" xmlns="http://www.w3.org/2000/svg" style="max-height: 500px" width="67.456" height="64.56228956228956"><path fill-rule="evenodd" fill="#1d1d1b" stroke="none" d=""/><path fill-rule="evenodd" fill="#201c1c" stroke="none" d=""/><path fill-rule="evenodd" fill="#1c1c1c" stroke="none" d="M 762.500 16.035 C 761.400 16.526, 758.537 17.424, 756.139 18.032 C 751.957 19.092, 751.803 19.264, 752.394 22.218 C 752.733 23.913, 754.808 28.146, 757.005 31.625 C 759.202 35.104, 761 38.180, 761 38.461 C 761 38.741, 758.834 38.117, 756.187 37.074 C 753.540 36.031, 749.406 35.025, 747 34.838 L 742.625 34.500 741.305 40.936 C 740.246 46.097, 740.234 47.545, 741.242 48.243 C 741.934 48.722, 746.550 48.841, 751.500 48.507 L 760.500 47.901 755.807 52.701 C 751.823 56.775, 748.262 62.636, 749.222 63.539 C 749.375 63.682, 752.333 64.947, 755.795 66.348 L 762.089 68.896 762.911 66.698 C 763.363 65.489, 764.565 61.125, 765.582 57 C 766.599 52.875, 767.483 49.389, 767.546 49.253 C 767.609 49.117, 770.810 52.154, 774.658 56.003 C 778.506 59.851, 782.119 63, 782.686 63 C 783.253 63, 785.399 60.466, 787.456 57.369 C 790.412 52.916, 790.913 51.549, 789.847 50.832 C 786.876 48.835, 783.236 47.184, 778 45.458 L 772.500 43.646 778.185 41.945 C 781.311 41.009, 785.468 39.256, 787.422 38.048 L 790.974 35.853 786.950 29.926 C 784.737 26.667, 782.701 24, 782.428 24 C 780.910 24, 776.564 27.827, 772.560 32.690 L 768 38.230 767.900 29.365 C 767.754 16.357, 766.839 14.100, 762.500 16.035 M 36.929 180.300 C 30.589 182.103, 23.783 186.282, 20.805 190.200 C 15.668 196.958, 14.600 200.094, 14.549 208.576 C 14.505 215.863, 14.796 217.131, 17.522 221.543 C 21.791 228.450, 26.640 231.395, 41.500 236.107 C 56.218 240.773, 60.391 242.954, 63.099 247.395 C 65.440 251.234, 65.560 258.017, 63.370 262.633 C 58.486 272.926, 38.593 275.053, 22.634 266.989 C 17.062 264.173, 15 263.928, 15 266.079 C 15 266.607, 13.843 268.873, 12.428 271.114 C 11.013 273.355, 10.001 275.303, 10.178 275.442 C 10.355 275.581, 12.975 276.874, 16 278.317 C 24.108 282.182, 32.487 284.301, 41.500 284.765 C 48.270 285.114, 50.806 284.748, 58 282.384 C 65.488 279.923, 67.221 278.871, 72.555 273.545 C 77.365 268.743, 78.985 266.295, 80.434 261.637 C 83.817 250.759, 81.258 240.386, 73.335 232.856 C 68.308 228.079, 63.963 226.009, 49.555 221.526 C 34.728 216.913, 31 213.904, 31 206.550 C 31 200.393, 32.918 196.976, 37.966 194.139 C 41.590 192.102, 43.186 191.847, 50.314 192.160 C 56.998 192.454, 59.759 193.114, 65.362 195.760 C 69.137 197.542, 72.377 199, 72.564 199 C 73.178 199, 79 190.161, 79 189.229 C 79 187.967, 70.122 183.255, 64.310 181.432 C 57.545 179.309, 42.585 178.691, 36.929 180.300 M 837.929 180.303 C 823.714 184.335, 811.915 197.592, 807.491 214.500 C 802.095 235.128, 806.455 257.490, 818.463 270.776 C 824.096 277.008, 829.666 280.474, 838.238 283.080 C 846.201 285.502, 849.247 285.480, 858.762 282.930 C 865.994 280.992, 876.037 276.417, 875.970 275.091 C 875.954 274.766, 874.262 272.559, 872.210 270.186 L 868.480 265.872 863.895 268.435 C 857.637 271.933, 849.098 272.752, 841.604 270.573 C 834.176 268.414, 828.165 262.591, 824.916 254.407 C 822.806 249.094, 822.567 246.891, 822.535 232.500 C 822.507 219.661, 822.852 215.491, 824.282 211.395 C 827.113 203.286, 831.336 197.474, 836.664 194.351 C 840.805 191.924, 842.551 191.526, 849.059 191.526 C 855.314 191.526, 857.530 191.991, 861.774 194.193 L 866.913 196.859 870.429 192.180 L 873.945 187.500 871.222 185.261 C 869.725 184.029, 866.475 182.303, 864 181.425 C 857.931 179.273, 843.718 178.662, 837.929 180.303 M 120.458 182.250 C 120.195 182.938, 120.097 205.775, 120.240 233 L 120.500 282.500 128.250 282.792 L 136 283.084 136 232.042 L 136 181 128.469 181 C 123.366 181, 120.783 181.403, 120.458 182.250 M 177.241 231.750 L 177.500 282.500 202.924 282.500 L 228.349 282.500 229.632 277 C 230.338 273.975, 230.934 271.163, 230.958 270.750 C 230.981 270.337, 222.338 270, 211.750 270 L 192.500 270.001 192.770 225.500 L 193.041 181 185.011 181 L 176.982 181 177.241 231.750 M 262.241 231.667 L 262.500 282.500 284.500 282.398 C 304.835 282.303, 306.945 282.124, 312.381 280.027 C 322.511 276.119, 328.730 268.642, 330.458 258.295 C 331.488 252.132, 329.407 243.692, 325.635 238.729 C 322.329 234.379, 314.044 229.065, 310.500 229.023 C 309.178 229.007, 309.920 228.295, 312.687 226.926 C 321.300 222.663, 326 215.454, 326 206.508 C 326 196.631, 321.277 189.355, 311.500 184.170 C 306.593 181.568, 306.086 181.512, 284.241 181.176 L 261.982 180.833 262.241 231.667 M 370 232 L 370 283 398.546 283 L 427.091 283 426.796 276.250 L 426.500 269.500 405.749 269.500 L 384.998 269.500 384.999 252.775 L 385 236.050 401.250 235.775 L 417.500 235.500 417.500 229.500 L 417.500 223.500 401.250 223.225 L 385 222.950 385 207.975 L 385 193 404.412 193 L 423.824 193 424.485 188.750 C 424.849 186.412, 425.369 183.713, 425.640 182.750 C 426.103 181.113, 424.320 181, 398.067 181 L 370 181 370 232 M 464 231.956 L 464 283.088 471.250 282.794 L 478.500 282.500 478.769 260.250 C 479.085 234.137, 478.970 234.326, 488.481 244.331 C 493.679 249.798, 505.544 268.126, 511.411 279.750 L 513.051 283 522.026 283 C 526.962 283, 531 282.818, 531 282.596 C 531 282.009, 511.314 251.306, 508.229 247.081 C 506.790 245.111, 504.504 242.276, 503.148 240.780 C 500.507 237.866, 500.553 237.807, 506.500 236.515 C 515.391 234.583, 522.964 226.306, 525.055 216.236 C 527.838 202.830, 521.751 189.539, 510.238 183.880 C 505.831 181.714, 504.052 181.526, 484.750 181.188 L 464 180.825 464 231.956 M 567.241 231.750 L 567.500 282.500 589.500 282.382 C 609.784 282.274, 611.961 282.088, 617.407 280.002 C 639.217 271.646, 641.423 241.419, 620.984 230.992 C 618.836 229.896, 616.274 228.979, 615.290 228.953 C 614.301 228.928, 615.581 227.823, 618.152 226.484 C 634.401 218.021, 635.147 196.536, 619.547 186.297 C 612.708 181.808, 607.579 181, 585.942 181 L 566.982 181 567.241 231.750 M 674.241 231.750 L 674.500 282.500 699.768 282.767 L 725.036 283.034 725.893 280.767 C 726.364 279.520, 727.070 276.587, 727.463 274.250 L 728.176 270 709.088 270 L 690 270 690 225.500 L 690 181 681.991 181 L 673.982 181 674.241 231.750 M 757 232 L 757 283 764.500 283 L 772 283 772 232 L 772 181 764.500 181 L 757 181 757 232 M 911.241 231.750 L 911.500 282.500 919 282.500 L 926.500 282.500 926.500 255.833 C 926.500 241.166, 926.682 229.347, 926.904 229.570 C 927.127 229.793, 935.227 241.793, 944.904 256.238 L 962.500 282.500 972.250 282.786 C 977.962 282.954, 982 282.678, 982 282.120 C 982 281.595, 981.627 281.017, 981.172 280.833 C 980.717 280.650, 973.215 270.375, 964.503 258 C 955.790 245.625, 947.417 233.897, 945.895 231.937 L 943.129 228.375 949.787 219.937 C 953.448 215.297, 961.744 204.830, 968.222 196.678 C 974.700 188.525, 980 181.663, 980 181.428 C 980 181.192, 975.837 181.021, 970.750 181.047 L 961.500 181.093 944.250 204.171 L 927 227.250 927 204.125 L 927 181 918.991 181 L 910.982 181 911.241 231.750 M 478.999 210.103 L 478.997 227.500 489.249 226.956 C 501.940 226.282, 505.351 224.721, 508.199 218.282 C 509.696 214.898, 510.107 212.302, 509.776 208.312 C 508.921 198.005, 503.494 194.167, 488.505 193.273 L 479 192.706 478.999 210.103 M 277 208.500 L 277 223 288.750 222.985 C 301.432 222.969, 304.009 222.248, 307.318 217.791 C 310.211 213.895, 310.665 205.500, 308.227 201 C 305.176 195.369, 301.278 194.003, 288.250 194.002 L 277 194 277 208.500 M 582 208.500 L 582 223 593.750 222.996 C 607.904 222.992, 610.776 221.771, 613.517 214.594 C 616.421 206.991, 614.216 199.932, 607.696 195.956 C 605.029 194.330, 602.637 194.007, 593.250 194.004 L 582 194 582 208.500 M 277 252.979 L 277 270.155 290.431 269.827 C 304.963 269.473, 306.777 268.858, 311.352 262.730 C 314.317 258.759, 314.710 250.394, 312.199 244.718 C 309.125 237.768, 306.194 236.628, 290.250 236.178 L 277 235.804 277 252.979 M 582 252.979 L 582 270.155 595.250 269.827 C 607.232 269.531, 608.813 269.277, 611.765 267.171 C 620.889 260.663, 620.843 245.440, 611.678 238.605 C 609.206 236.760, 607.195 236.457, 595.428 236.152 L 582 235.804 582 252.979"/></svg>